<svg width="24" height="24" viewBox="0 0 24 24" fill="none" xmlns="http://www.w3.org/2000/svg">
<path d="M4.92815 19.5712C2.77855 17.4216 2.77855 13.9426 4.92815 11.793L12.3528 4.36842C13.9155 2.80571 16.4469 2.80571 18.0096 4.36842C19.5723 5.93113 19.5723 8.46257 18.0096 10.0253L11.9992 16.0357C11.0234 17.0115 9.43949 17.0115 8.46368 16.0357C7.48788 15.0599 7.48788 13.476 8.46368 12.5001L13.767 7.19685L15.1812 8.61106L9.81426 13.978C9.42535 14.3669 10.1325 15.074 10.5214 14.6851L16.5954 8.61106C17.3732 7.83324 17.3732 6.56045 16.5954 5.78263C15.8176 5.00481 14.5448 5.00481 13.767 5.78263L6.34236 13.2073C4.97765 14.572 4.97765 16.7923 6.34236 18.157C7.70708 19.5217 9.92739 19.5217 11.2921 18.157L18.0096 11.4395L19.4238 12.8537L12.7063 19.5712C10.5567 21.7208 7.07775 21.7208 4.92815 19.5712Z" fill="#4CAF50"/>
</svg>
